<svg xmlns="http://www.w3.org/2000/svg" viewBox="0 0 148.05 128.31"><defs><style>.cls-1{fill:#00273b;fill-rule:evenodd;}</style></defs><title>cart</title><g id="Layer_2" data-name="Layer 2"><g id="Layer_1-2" data-name="Layer 1"><g id="Welcome"><g id="Home-Copy"><g id="Header"><g id="Menu"><g id="Group-3"><path id="Fill-1" class="cls-1" d="M106.15,34.71a14.33,14.33,0,0,1-1.2,2.72c-.06.19-.13.39-.2.58-.64,2.47-.8,3.12-2.24,3.29a10.31,10.31,0,0,1-1.22.06h-.89c-1.74,0-3.49,0-5.23,0-1,0-1.38-.22-1.33-1.26.08-1.8,0-3.61,0-5.42s0-1.72,1.78-1.49l5.47.19,2.09,0h2.1c1.06,0,1.26.36.85,1.29m-4.24,11.87a2.53,2.53,0,0,0-.18.37l-.06.14c0,.1-.07.2-.11.29a1.44,1.44,0,0,1-.47.64,1.61,1.61,0,0,1-.14.62,1.7,1.7,0,0,1-.37.53c-1,2.79-2.45,5.4-3.64,8.11-.48,1.08-1.64.52-2.48.53s-.56-.73-.57-1.16c0-3.32,0-6.64,0-10,0-.89.28-1.19,1.31-1.16,2,.07,4,.06,5.93,0,1,0,1.37.18.81,1M89.58,75.3c-.09,1.82-1.18,3.42-1.82,5.11a.49.49,0,0,1-.58.29c-1.19-.34-2.48,0-3.64-.55l-3.32-.3a3.08,3.08,0,0,1-.91,0L79,79.78l-.61-.12a3.15,3.15,0,0,0-.61-.06c-.49,0-.61-.31-.61-.73,0-4.66,0-9.32,0-14,0-.65.29-.82.85-.71H89.07a.56.56,0,0,1,.43.1l.07.09a.53.53,0,0,1,.05.15s0,0,0,.07v.15c0,.1,0,.21,0,.3,0,3.42.12,6.84,0,10.25M77.16,56.68l0-1.27c0-1.27,0-2.54,0-3.81,0-1.65,0-3.29,0-4.94,0-.79.17-1.14,1.06-1.13q5.19.07,10.38,0c.89,0,1.07.34,1.06,1.13,0,3.39,0,6.77,0,10.16,0,.94-.35,1.13-1.21,1.12-3.37,0-6.73,0-10.1,0-1,0-1.24-.36-1.2-1.27M71.76,58q-.65,0-1.29,0c-1.29,0-2.59,0-3.88,0s-2.51,0-3.77,0l-1.26,0c-.77,0-1.1-.17-1.09-1.06q.08-5.15,0-10.29c0-.88.33-1.06,1.09-1.05,3.44,0,6.89,0,10.33,0,.91,0,1.1.35,1.09,1.2,0,3.34,0,6.68,0,10,0,1-.34,1.23-1.22,1.2m.54,20.68c-2.88-.37-5.78-.47-8.63-1.07-3.19,0-3.19,0-3.19-3.27,0-3,0-6,0-9,0-.74.08-1.17,1-1.15,1.61,0,3.21,0,4.82,0H71.1a4.64,4.64,0,0,1,1.42,0l.1,0,.13.09,0,.06a1,1,0,0,1,.07.15A5,5,0,0,1,73,66c0,3.82,0,7.64,0,11.47,0,.48.22,1.26-.66,1.14m-16-44c-.1,1.88-.08,3.77,0,5.66,0,.91-.33,1.14-1.27,1.11-.41,0-.83,0-1.24,0-1.25,0-2.49,0-3.73,0H44.93c-.79,0-1.16-.14-1.14-1,.06-2.14,0-4.27,0-6.41,0-.62.15-1,.92-.89,3.35.35,6.72.16,10.08.19,1.1,0,1.55.22,1.5,1.31M55.09,58l-1.28,0c-1.28,0-2.56,0-3.84,0s-2.56,0-3.84,0l-1.28,0c-.75,0-1.07-.18-1.06-1q.06-5.21,0-10.43c0-.82.33-1,1.07-1,3.46,0,6.92,0,10.37,0,.9,0,1.07.35,1.07,1.14,0,3.38,0,6.77,0,10.15,0,1-.35,1.15-1.21,1.13m0,18.6c-3.52-.37-7-.75-10.56-1.1-.64-.06-.73-.4-.73-.9,0-3.18,0-6.36,0-9.54,0-.6.13-1,.85-.82H55.72a.64.64,0,0,1,.44.1.34.34,0,0,1,.1.16,2.15,2.15,0,0,1,0,.57c0,3.54,0,7.08,0,10.61,0,1-.52,1-1.22.92M60.52,34a.69.69,0,0,1,.11-.68,1,1,0,0,1,.68-.17q5.31.07,10.62.08c.82,0,1.06.36,1,1.14,0,2,0,4.06,0,6.09,0,.78-.29,1-1,1-3.5,0-7,0-10.49,0-.85,0-1.14-.28-1-1.08V34m17.7-.85c3.51,0,7,0,10.55.25.64,0,.9.22.89.88,0,2.07,0,4.15,0,6.22,0,.74-.28.94-1,.93l-1.32,0h-4c-1.76,0-3.53,0-5.29,0-.7,0-1-.2-1-.94q.06-3.16,0-6.35c0-.82.3-1,1.06-1M99.65,121a5.55,5.55,0,0,1-2.94,2.82,4.72,4.72,0,0,1-.53.18l-.28.07a5,5,0,0,1-.66.09H95a3.54,3.54,0,0,1-.56,0,4.72,4.72,0,0,1-1.11-.26,4.16,4.16,0,0,1-.54-.23,5.42,5.42,0,0,1-1-.68h0a4.93,4.93,0,0,1,0-8,.72.72,0,0,1,.21-.12,4.91,4.91,0,0,1,5.22-.47c.17.08.33.17.49.26a3.62,3.62,0,0,1,.41.27,4.38,4.38,0,0,1,1.6,2.21,4.26,4.26,0,0,1,.26.73,3,3,0,0,1,.1.49,1.07,1.07,0,0,1,0,.25c0,.1,0,.2,0,.3a5.1,5.1,0,0,1-.44,2.14m-75.56,3.17a5.4,5.4,0,0,1-5.32-5.23,5.21,5.21,0,0,1,5.37-5.11,5,5,0,0,1,5.05,5.22,5.19,5.19,0,0,1-5.1,5.12M39.62,65.69c-.1,2.61,0,5.23,0,7.85,0,.52.1,1.06-.8.95-3.6-.42-7.21-.81-10.81-1.18-.58-.06-1-.16-.82-.83,0-2.45,0-4.9-.05-7.34,0-.74.24-1,1-1l4.92,0H38a1.63,1.63,0,0,1,1.26.07l.1.09a.77.77,0,0,1,.2.33,2.64,2.64,0,0,1,.11,1M27.11,46.49c0-.71.22-1,.93-1,3.57,0,7.13,0,10.7,0,.63,0,.87.21.87.87,0,3.53,0,7.05,0,10.58,0,.86-.38,1-1.07,1-1.76,0-3.52,0-5.28,0s-3.43,0-5.15,0c-.76,0-1-.24-1-1q0-5.22,0-10.44m.16-13,.09-.12a1.64,1.64,0,0,1,1.39-.28,92.12,92.12,0,0,0,9.83.26c.87,0,1.05.38,1,1.26,0,2.52,0,5.05,0,7.57,0,.91-.21,1.24-1.06,1.23-3.46-.05-6.93-.05-10.39,0-.87,0-1.15-.33-1-1.24V35a1.91,1.91,0,0,1,.07-1.41M22.83,35v7.25c.15.58.08.93-.22,1.11a1.71,1.71,0,0,1-.8.14q-3.48-.08-7,0c-.74,0-1.1-.28-1.15-1a25.29,25.29,0,0,1-.42-3.89.32.32,0,0,1,0-.14h0a.66.66,0,0,1,0-.14.54.54,0,0,1-.16-.22.47.47,0,0,1,0-.24,1.67,1.67,0,0,1,0-.18c0-.59-.11-1.19-.16-1.79a1.58,1.58,0,0,1-.3-.92.71.71,0,0,1,0-.14c0-.14,0-.28,0-.42a2.53,2.53,0,0,0,0-.28,1.85,1.85,0,0,0-.07-.41c-.17-.65.38-.57.74-.57H22c1.51,0,.76,1.13.85,1.84m.07,21C23,57.9,23,57.9,21,57.9a32.11,32.11,0,0,0-3.4,0c-1.21.12-1.74-.3-1.74-1.43,0-.45-.06-.9-.09-1.35-.11-1-.23-2-.34-3l-.84-5.79c-.08-.58.18-.82.8-.82,2.25,0,4.49,0,6.73,0,1.17,0,.7.82.72,1.39q0,4.38,0,8.76a1.28,1.28,0,0,1,0,.27m0,15.66c0,.69-.32.86-1,.81l-2.05-.15-2.06-.12c-.12,0-.2,0-.22-.13v-.09c0-.17,0-.33,0-.5a37.86,37.86,0,0,1-.67-4.86c-.06-.54-.12-1.08-.2-1.62-.16-1.1.77-.74,1.41-.76,1.28,0,2.56,0,3.83,0,.73,0,1,.19,1,.85,0,2.2,0,4.41,0,6.61m125-69.08a3.77,3.77,0,0,0-4.5-2.43c-6.19,1.48-12.62,2.73-19.29,3.7l-1.75.25a7.58,7.58,0,0,0-2.63.73A7.12,7.12,0,0,0,117.93,6h0q-3.6,8.83-7.18,17.68a1.25,1.25,0,0,1-.46.63,1.12,1.12,0,0,1-.66.15L5.89,22.55C3.09,22.47.74,24,.16,26.14a4.65,4.65,0,0,0,1.11,4.41,32.49,32.49,0,0,0,3.65,2.17l.56.33L10.7,75.67l1.7,2.75,1.08.36C56.16,83.54,87,87,87.61,87a2,2,0,0,1,1,.31,1.57,1.57,0,0,1,.34.31q6.52,8,13.07,15.89H12.85a3.8,3.8,0,0,0-4,3.65,3.74,3.74,0,0,0,4,3.54c1.72,0,3.45,0,5.17,0a15.16,15.16,0,0,0-2.22,2.77,11.65,11.65,0,0,0-.21,9.26l.47.88a21.15,21.15,0,0,0,3.31,3.31l.89.45,1.45.46a9.93,9.93,0,0,0,12.82-11.5,8.32,8.32,0,0,0-3.39-5.58H88.46a7.09,7.09,0,0,0-2.32,2.49l-.25.47c-.08.16-.16.33-.23.49-.15.33-.29.66-.42,1l-.18.47L85,116l-.09.24c0,1.46,0,2.93,0,4.4a9.37,9.37,0,0,1,.38.86,10,10,0,0,0,10,6.84,9.84,9.84,0,0,0,5.13-1.7c.27-.18.54-.38.81-.58s.39-.31.58-.48.38-.33.57-.51h0l1.9-3c.11-.45.23-.91.34-1.36a12.62,12.62,0,0,0,0-4.42c-.11-.46-.22-.91-.32-1.37-.83-1.4-1.44-2.95-2.84-4.13,2.38,0,4.76-.1,7.12,0a4.94,4.94,0,0,0,4.59-2c.12-.45.24-.9.35-1.36C102.92,93.61,95.27,83.71,94.93,83.31a.9.9,0,0,1-.23-.43,1.2,1.2,0,0,1,.18-.82c.68-1.17,28.24-69.13,28.55-70.17a1.2,1.2,0,0,1,.25-.44,1.34,1.34,0,0,1,.92-.35c.7,0,8.87-1.64,20.4-3.91a3.76,3.76,0,0,0,2.91-4.65"/></g></g></g></g></g></g></g></svg>