<svg id="Layer_1" data-name="Layer 1" xmlns="http://www.w3.org/2000/svg" xmlns:xlink="http://www.w3.org/1999/xlink" viewBox="0 0 396.62 303.54"><defs><style>.cls-1,.cls-11,.cls-2{fill:#d98529;}.cls-1,.cls-4,.cls-5,.cls-7,.cls-9{clip-rule:evenodd;}.cls-3,.cls-4{fill:none;}.cls-28,.cls-5,.cls-6{fill:#a95a26;}.cls-31,.cls-7,.cls-8{fill:#f4a83a;}.cls-10,.cls-37,.cls-9{fill:#e7912a;}.cls-11,.cls-28,.cls-31,.cls-37{fill-rule:evenodd;}.cls-12{clip-path:url(#clip-path);}.cls-13{clip-path:url(#clip-path-2);}.cls-14{clip-path:url(#clip-path-3);}.cls-15{clip-path:url(#clip-path-4);}.cls-16{isolation:isolate;}.cls-17{clip-path:url(#clip-path-5);}.cls-18{clip-path:url(#clip-path-6);}.cls-19{clip-path:url(#clip-path-7);}.cls-20{clip-path:url(#clip-path-8);}.cls-21{clip-path:url(#clip-path-10);}.cls-22{clip-path:url(#clip-path-12);}.cls-23{clip-path:url(#clip-path-14);}.cls-24{clip-path:url(#clip-path-16);}.cls-25{clip-path:url(#clip-path-17);}.cls-26{clip-path:url(#clip-path-18);}.cls-27{fill:#da8529;}.cls-29{clip-path:url(#clip-path-19);}.cls-30{clip-path:url(#clip-path-20);}.cls-32{clip-path:url(#clip-path-21);}.cls-33{clip-path:url(#clip-path-22);}.cls-34{clip-path:url(#clip-path-23);}.cls-35{clip-path:url(#clip-path-25);}.cls-36{fill:#b47b49;}.cls-38{clip-path:url(#clip-path-27);}.cls-39{clip-path:url(#clip-path-28);}.cls-40{clip-path:url(#clip-path-29);}.cls-41{clip-path:url(#clip-path-31);}.cls-42{clip-path:url(#clip-path-33);}.cls-43{clip-path:url(#clip-path-35);}</style><clipPath id="clip-path"><path class="cls-1" d="M385.5,126.34l.09-2.35c.23-8.95-3.12-17-7.15-24.3C367.85,80.42,356,62,339.33,47.74c-15.23-13-32.72-21.56-51.08-28.32-23.43-8.62-47.72-13.1-72.32-15.64-24.1-2.48-48.1-.88-72.11,2.51a183.61,183.61,0,0,0-64.5,21.85c-2.19,1.22-4.56,2.16-6.07,4.41C70,38.11,65.92,43.12,63.34,49.12c-7.75,18-7.49,42.75,12.74,57.4,16.64,12,35.08,18.82,54.59,22.58,32.24,6.22,64,4.42,94.85-8.2a77,77,0,0,0,21.21-12.72c13.75-11.83,14.75-27.64,2.83-41.5-6-7-13.33-11.61-21.38-15.34C212.51,44.1,196,40.68,179.05,39.64c-14-.87-27.66,1.52-39.76,9.92l-.44.32c-13.72,9.83-14.9,21.75-3.43,34.52a53.65,53.65,0,0,0,33.33,3.71,18.09,18.09,0,0,0,5.48-2.1c3.72-2.14,4.37-5.12,1.79-8.76-2.13-3-5-5.33-7.34-8.1-3.27-3.82-3.16-6,.27-9.53a13.28,13.28,0,0,1,7.49-4C187,53.94,197.33,54,207.09,59.29c1.48.8,3.56,1.17,3.43,3.71,1.16,1.94,3.3,2,5,2.93,11.52,6,13.63,18.86,4.79,28.45-6.38,6.92-14.56,10.08-23.1,11.75-24.54,4.82-49,4.69-73-3.64-8.17-2.83-15.76-6.71-21.89-13.27a12.1,12.1,0,0,0-3.86-2.92C86.35,78.34,83.6,64.22,91.84,52c9.53-14.09,23.47-21.49,38.36-26.91a151.47,151.47,0,0,1,68.11-8.74c19,1.95,37,6.66,53.54,16.94a12.44,12.44,0,0,1,3.79,3c4.44,4.37,10,7,14.78,11,18.71,15.44,17.64,35.34,7.53,52.23-9.49,15.86-23.4,26.4-39.6,33.56-31.65,14-64.76,16.91-98.7,14.41-16.84-1.24-32.73-6-48.79-10.9C74.06,131.46,61.33,135,49.57,149c-3.24,3.87-6.1,4.84-10.59,2.75-9.74-4.52-19.62-8.69-29.4-13.12-1.77-.8-3.49-1.93-5.57-1.58a3.25,3.25,0,0,0-1.32,2.24A7.34,7.34,0,0,0,3,142.84c3.63,6.84,9.2,11.69,15.54,15.39,6.57,3.83,13.07,8,20.39,10.19a3,3,0,0,0,1.5-.58c6.31-9.86,6.25-9.72,16.52-4.62,14.65,7.27,25.26,19,34.05,33,5.18,8.24,9.88,16.9,17.52,23.12,14.2,11.55,29.5,11.3,45.38,4.8,9.53-3.9,17.83-10,26-16.38,6.15-4.79,12.55-9.15,19.06-13.37,1.78-1.15,4.48-2.21,4.19-4.6-.35-2.9-3.38-1.82-5.31-2.29-.86-.22-1.71-.47-2.59-.67a227.63,227.63,0,0,1-57.76-9.07,71.29,71.29,0,0,1-13-4.9,38,38,0,0,0,10.24.88c16.51,0,33.05.57,49.53-.13,27.54-1.16,54.87-4,80.87-14.86,21.36-8.93,40.94-20.86,57.36-37.82,10.31-10.65,14.21-24.18,12.82-39.4a66.85,66.85,0,0,0-11.51-32.13c11.53,10.15,20.72,24.17,23.52,42.25.35,5.32,2.56,9.89,4.87,14.54,7.48,15,9.81,31.32,10.66,48,.14,2.77-.31,5.59.68,8.28,1.62,2.24,2.9.58,3.8-.63A132,132,0,0,0,385,130.15c.48-1.23-.27-2.61.46-3.81"/></clipPath><clipPath id="clip-path-2"><rect class="cls-2" x="-92.39" y="-812.42" width="1440" height="1832"/></clipPath><clipPath id="clip-path-3"><rect class="cls-3" x="36.37" y="167.56" width="190.92" height="129.02"/></clipPath><clipPath id="clip-path-4"><rect class="cls-3" x="-92.39" y="-812.42" width="1440" height="1832"/></clipPath><clipPath id="clip-path-5"><rect class="cls-3" x="33.61" y="166.58" width="195" height="131"/></clipPath><clipPath id="clip-path-6"><path class="cls-4" d="M41,167.86l-1,.07c-2.9,5.37-3,11.5-3.33,17.29-2.06,35.73,8.56,65.83,36.27,88a31.16,31.16,0,0,1,3.19,2.89c6.15,5.46,14.07,5.83,21.28,8.24a314.11,314.11,0,0,0,95.53,12.17c9.13-.23,18.31-.17,27.36-1.91,4.36-5.68,4.88-12.71,5.64-19.46,1.34-11.86,1.07-23.82,1.36-35.75.37-15.28-2-30.1-5.23-44.84-2.86-3.78-6.21-1.49-9.14-.45a126.32,126.32,0,0,0-30.33,15.81c-9,6.29-17.43,13.42-26.9,18.92-8.27,4.81-16.83,8.25-26.58,8.4-13.92.22-24-6.58-31.72-17.94C92,211.4,87.17,203.13,81.47,195.48c-10-13.38-23.24-21.53-37.91-27.61a2.85,2.85,0,0,0-2.56,0"/></clipPath><clipPath id="clip-path-7"><rect class="cls-3" x="35.61" y="166.58" width="192" height="130"/></clipPath><clipPath id="clip-path-8"><path class="cls-4" d="M221.6,193.15c-.88,4.74.83,9.15,1.68,13.62,3.8,19.89,2.75,39.87,1.89,59.94-.42,9.61-2.46,18.69-4.56,27.87a236.82,236.82,0,0,0,52.94-9.18c2.72-4.44,2.56-9.65,3.19-14.56,2.22-17,4.19-34,3.82-51.29-.16-7.48-.95-14.87-1.61-22.3a4.7,4.7,0,0,0-1.62-2.47c-18-8.38-36.4-9.4-55.18-3.31a1.39,1.39,0,0,0-.55,1.68"/></clipPath><clipPath id="clip-path-10"><path class="cls-4" d="M277.88,197.35c.05,10.73,1.49,21.39,1.1,32.16a410.42,410.42,0,0,1-5,48.88,71.52,71.52,0,0,0-.41,7.19c15.89-3.92,31.23-9.42,45.58-17.78,4.29-5.19,4.71-12,6.23-18.16,3.43-14,6-28.31,6.16-42.91,0-2.27.24-4.48-1.47-6.25-1.87-1.23-3.72-.58-5.53.15-11.91,4.85-23.6,3.66-35.36-.88-3.57-1.38-7-4.66-11.34-2.4"/></clipPath><clipPath id="clip-path-12"><path class="cls-4" d="M329.16,200.23c1,9.06-.12,18-1.39,26.93-2,13.75-5.58,27.08-9.16,40.42A122.33,122.33,0,0,0,353,243.11c.81-8,3.6-15.47,5.09-23.3a412.17,412.17,0,0,0,6.42-49.64,12.68,12.68,0,0,0-.2-4.43c-2.37-2.81-3.34.19-4.28,1.41-4,5.2-7.75,10.66-12,15.69a82.6,82.6,0,0,1-17.65,14.69,2.92,2.92,0,0,0-1.25,2.7"/></clipPath><clipPath id="clip-path-14"><rect class="cls-3" x="351.2" y="126.93" width="37.41" height="116.81"/></clipPath><clipPath id="clip-path-16"><rect class="cls-3" x="350.61" y="126.58" width="40" height="118"/></clipPath><clipPath id="clip-path-17"><path class="cls-4" d="M363.71,165c-1.52,21.13-3.9,42.14-8.69,62.79-1,4.33-2.14,8.64-3.49,12.86-.61,1.89-.53,2.85,1.51,3.08,19.31-17,28.89-39.54,33.32-64.71,3.06-17.38,3.27-34.83-1.11-52.11-5.76,13.21-12.2,26-21.52,37a.69.69,0,0,0-.27.73c.08.25.17.38.25.38"/></clipPath><clipPath id="clip-path-18"><rect class="cls-3" x="350.61" y="126.58" width="38" height="118"/></clipPath><clipPath id="clip-path-19"><path class="cls-5" d="M74,33.76C53.39,46.49,33.43,59.93,20.69,82.13A127.19,127.19,0,0,0,3.61,137.75C16.3,143.48,29,149.16,41.67,155c4.4,2,6.25-1.46,8.24-4.08,5.25-6.93,11.83-11.92,20-13.61a41,41,0,0,1,22.51,1.62c14.56,5.26,29.38,9.08,44.91,10.28a295.64,295.64,0,0,0,34.56.73c24.57-1,48.57-5.76,70.91-16.84,16.77-8.32,31-20.15,39.53-38.1s4.05-37-11.63-48.8c-4.59-3.45-9.37-6.63-14.06-9.94-11.35-7.48-24.25-9.16-37.13-10.67-17-2-34-.75-50.89,2.06-23,3.83-43.6,13.26-61.35,29.11a48.37,48.37,0,0,0-13,18.84c-2.3,6-1.7,7.77,3.29,11.82,17.1,18.32,39.13,22.51,62.16,23.45,13.64.56,27.35.57,40.61-3.42,7.81-2.35,15-5.68,21.41-11.7,12.43-11.74,2.45-28.78-8.2-31.67-1-.27-2.15-.1-2.91-1.09-6.8-3.55-18.38-1.54-23.16,4a8.4,8.4,0,0,0-1.86,8.27c.41,1.43.94,2.8,1.44,4.2,3.44,9.69-.57,16.46-10.46,17.52-9.45,1-18.39-1.14-26.92-5.24a138.53,138.53,0,0,1-13.59-7.62,44,44,0,0,1-6.81-11.85c-2.6-6.42.9-11.35,4.6-15.53,7.54-8.53,17.55-12.59,28.27-13.94,25.89-3.24,50.37,2.36,73.45,14.69A41.7,41.7,0,0,1,255.22,80c4,10.29-1.19,20.25-8.07,26.24-15.49,13.49-34.14,19-53.54,22.64a157.21,157.21,0,0,1-41.89,2c-27.83-2.26-54.54-9-77.44-27.11C61.18,93.37,58.27,79.13,60.52,63c1.38-9.92,6.26-18,11.79-25.84.76-1.06,1.64-2,1.65-3.39"/></clipPath><clipPath id="clip-path-20"><rect class="cls-6" x="-92.39" y="-812.42" width="1440" height="1832"/></clipPath><clipPath id="clip-path-21"><path class="cls-7" d="M329.94,200.58l1.37-1.63a9.19,9.19,0,0,0,1.14-6.47c-1.43-11.43-1.19-23.24-5.05-34.16-2.83-8-2.21-13.95,4.32-19.62,3.61-3.12,6.36-7.49,9-11.71,6.69-10.58,11.17-21.64,7.59-34.67-2.61-21-14.17-35.86-30.1-47.74,6.42,8.2,11.38,17.29,13.77,27.55,4.65,20,1.31,37.35-14.19,51.91-20.86,19.57-45,32.31-71.48,40.36-11.5,3.5-23.51,4.95-35.48,6.39-26.21,3.16-52.49,1.73-78.74,2.11-4.16.06-8.24-1.83-12.51-.11,24.24,11,49.69,15.69,76,15.9,7.84.85,15.64,2.42,23.58,1.38,12.17-2.19,24.55-3.08,36.59-6.3a91,91,0,0,0,12.15-3.91c3.18-1.36,4.81-.75,5.42,3.2.7,4.51.69,9.3,3.37,13.28l1.07,1.14c5,1.8,10,3.66,15,5.39,12.67,4.38,25,3.32,37.15-2.29"/></clipPath><clipPath id="clip-path-22"><rect class="cls-8" x="-92.39" y="-812.42" width="1440" height="1832"/></clipPath><clipPath id="clip-path-23"><path class="cls-4" d="M3.76,143.58A299.07,299.07,0,0,0,7.15,197.5C11,224,26.21,242.94,45.72,258.42c9.12,7.22,18.8,13.64,29.89,17.16-5.07-4.81-10.37-9.38-15.17-14.46C47.44,247.36,41,230,37.54,211.36c-2.32-12.51-1.52-25.08.76-37.57a41.16,41.16,0,0,0,.27-5.57c-6.23-3.33-12.5-6.56-18.66-10-6.39-3.59-11.3-9.1-16.15-14.63"/></clipPath><clipPath id="clip-path-25"><path class="cls-4" d="M97.63,87.58c-5-4.38-3.26-9.26-.86-14.09,5.7-11.48,14.78-19.44,25-26.11,20.53-13.39,43.1-19.1,67.05-20.66,18.38-1.2,36.39,0,54.18,4.79,4.61,1.25,9.08,3.1,13.62,4.69-6-6.39-13.86-9.53-21.61-12.46-24.26-9.2-49.17-11.18-74.71-7.25-21,3.23-40.85,9.36-58.07,22.71C92.44,46.78,84.49,56,85.73,70.39c.59,6.71,6.24,15.22,11.9,17.19"/></clipPath><clipPath id="clip-path-27"><path class="cls-9" d="M348.49,91.58c2.26,21-8.54,35.86-21.48,49.57-3.27,3.46-4.25,6.12-2.65,11A108.77,108.77,0,0,1,330.11,186a10.78,10.78,0,0,0,1.05,5.41c5,.77,8.84-2.14,12.92-4.34,1.89-1,3.17-3.07,5.42-3.46,5.89-5.62,9.71-13,15-19.11,0-.36,0-.73,0-1.1a146.06,146.06,0,0,0-6.63-48.11c-.62-1.93-1.64-3.71-2.42-5.59-2.47-6-6.4-11.39-7-18.16"/></clipPath><clipPath id="clip-path-28"><rect class="cls-10" x="-92.39" y="-812.42" width="1440" height="1832"/></clipPath><clipPath id="clip-path-29"><path class="cls-1" d="M220.35,187.65l-24.41.08c1.86,2.05,4.49.22,7.16,1.8-6.24,4.29-12.26,8.3-18.15,12.51-9.76,7-18.93,14.7-29.9,19.85-22,10.33-42.94,4.7-56-16.27-6.49-10.44-12.77-21.08-21.33-29.84-8-8.16-17.78-13.28-27.57-18.41-3.27-1.71-5.37-.6-6.71,2.76-.95,2.4-2.6,4.48-2.87,7.19,9.19,5.11,19.07,8.77,27.36,15.82,11.26,9.58,18.94,22.08,26.68,34.59,4.66,7.52,10.41,13.69,18.29,17.29,15.66,7.15,30.07,2.64,43.95-5.66,13.54-8.1,25.2-19.34,39.23-26.62,8.08-4.18,16.16-8.46,25.26-9.71a5.16,5.16,0,0,1,.1-.88c.26-1.68.22-3.27-1.13-4.5"/></clipPath><clipPath id="clip-path-31"><path class="cls-4" d="M136.61,84c12,11.15,26.14,16,42,14.22,10.18-1.16,14.23-9.16,10.55-18.8s0-15.91,10.2-16.62c3.87-.27,7.78.05,11.67.1,3.42-1.4.43-2.46-.34-3a32.06,32.06,0,0,0-14.8-5.62c-7.37-.78-14.76-1.43-22.05,1.06-3.23,1.1-5.51,3.26-7.61,5.76s-2.19,5.32.24,7.87c2.63,2.75,5.3,5.47,7.88,8.28,4,4.32,3.68,6.33-1.52,8.32-10.33,3.93-20.74,3-31.12,0-1.69-.5-3.38-1-5.07-1.54"/></clipPath><clipPath id="clip-path-33"><path class="cls-9" d="M220.61,187.73c.19,1.57-.44,3.37,1.12,4.54,5-.79,10-1.5,15-2.39,13.85-2.49,26.93,1.26,39.93,5.7-.73-5.77-1.38-11.54-2.21-17.29-.62-4.37-3.84-2.31-5.32-1.62-7.62,3.62-15.68,5.27-23.76,6.82-6.68,1.27-13.44,2.14-20.18,3a11.09,11.09,0,0,0-4.53,1.23"/></clipPath><clipPath id="clip-path-35"><path class="cls-9" d="M349.61,183.43c-.83-1.3-1.71-.92-2.61-.11-4.52,4.05-10,5.92-15.39,8.07q.06,3.59.14,7.19c7.1-3.46,12.55-9.21,17.86-15.15"/></clipPath></defs><title>none</title><path class="cls-11" d="M385.5,126.34l.09-2.35c.23-8.95-3.12-17-7.15-24.3C367.85,80.42,356,62,339.33,47.74c-15.23-13-32.72-21.56-51.08-28.32-23.43-8.62-47.72-13.1-72.32-15.64-24.1-2.48-48.1-.88-72.11,2.51a183.61,183.61,0,0,0-64.5,21.85c-2.19,1.22-4.56,2.16-6.07,4.41C70,38.11,65.92,43.12,63.34,49.12c-7.75,18-7.49,42.75,12.74,57.4,16.64,12,35.08,18.82,54.59,22.58,32.24,6.22,64,4.42,94.85-8.2a77,77,0,0,0,21.21-12.72c13.75-11.83,14.75-27.64,2.83-41.5-6-7-13.33-11.61-21.38-15.34C212.51,44.1,196,40.68,179.05,39.64c-14-.87-27.66,1.52-39.76,9.92l-.44.32c-13.72,9.83-14.9,21.75-3.43,34.52a53.65,53.65,0,0,0,33.33,3.71,18.09,18.09,0,0,0,5.48-2.1c3.72-2.14,4.37-5.12,1.79-8.76-2.13-3-5-5.33-7.34-8.1-3.27-3.82-3.16-6,.27-9.53a13.28,13.28,0,0,1,7.49-4C187,53.94,197.33,54,207.09,59.29c1.48.8,3.56,1.17,3.43,3.71,1.16,1.94,3.3,2,5,2.93,11.52,6,13.63,18.86,4.79,28.45-6.38,6.92-14.56,10.08-23.1,11.75-24.54,4.82-49,4.69-73-3.64-8.17-2.83-15.76-6.71-21.89-13.27a12.1,12.1,0,0,0-3.86-2.92C86.35,78.34,83.6,64.22,91.84,52c9.53-14.09,23.47-21.49,38.36-26.91a151.47,151.47,0,0,1,68.11-8.74c19,1.95,37,6.66,53.54,16.94a12.44,12.44,0,0,1,3.79,3c4.44,4.37,10,7,14.78,11,18.71,15.44,17.64,35.34,7.53,52.23-9.49,15.86-23.4,26.4-39.6,33.56-31.65,14-64.76,16.91-98.7,14.41-16.84-1.24-32.73-6-48.79-10.9C74.06,131.46,61.33,135,49.57,149c-3.24,3.87-6.1,4.84-10.59,2.75-9.74-4.52-19.62-8.69-29.4-13.12-1.77-.8-3.49-1.93-5.57-1.58a3.25,3.25,0,0,0-1.32,2.24A7.34,7.34,0,0,0,3,142.84c3.63,6.84,9.2,11.69,15.54,15.39,6.57,3.83,13.07,8,20.39,10.19a3,3,0,0,0,1.5-.58c6.31-9.86,6.25-9.72,16.52-4.62,14.65,7.27,25.26,19,34.05,33,5.18,8.24,9.88,16.9,17.52,23.12,14.2,11.55,29.5,11.3,45.38,4.8,9.53-3.9,17.83-10,26-16.38,6.15-4.79,12.55-9.15,19.06-13.37,1.78-1.15,4.48-2.21,4.19-4.6-.35-2.9-3.38-1.82-5.31-2.29-.86-.22-1.71-.47-2.59-.67a227.63,227.63,0,0,1-57.76-9.07,71.29,71.29,0,0,1-13-4.9,38,38,0,0,0,10.24.88c16.51,0,33.05.57,49.53-.13,27.54-1.16,54.87-4,80.87-14.86,21.36-8.93,40.94-20.86,57.36-37.82,10.31-10.65,14.21-24.18,12.82-39.4a66.85,66.85,0,0,0-11.51-32.13c11.53,10.15,20.72,24.17,23.52,42.25.35,5.32,2.56,9.89,4.87,14.54,7.48,15,9.81,31.32,10.66,48,.14,2.77-.31,5.59.68,8.28,1.62,2.24,2.9.58,3.8-.63A132,132,0,0,0,385,130.15c.48-1.23-.27-2.61.46-3.81"/><g class="cls-12"><rect class="cls-2" x="-92.39" y="-812.42" width="1440" height="1832"/><g class="cls-13"><rect class="cls-2" x="-2.39" y="-2.42" width="393" height="236"/></g></g><g class="cls-14"><g class="cls-15"><g class="cls-16"><g class="cls-17"><g class="cls-18"><g class="cls-19"><rect class="cls-2" x="31.37" y="162.56" width="200.92" height="139.02"/></g></g></g></g></g></g><g class="cls-20"><g class="cls-15"><rect class="cls-10" x="215.61" y="182.58" width="70" height="117"/></g></g><g class="cls-21"><g class="cls-15"><rect class="cls-8" x="268.61" y="191.58" width="68" height="99"/></g></g><g class="cls-22"><g class="cls-15"><rect class="cls-10" x="313.61" y="159.58" width="56" height="113"/></g></g><g class="cls-23"><g class="cls-15"><g class="cls-16"><g class="cls-24"><g class="cls-25"><g class="cls-26"><rect class="cls-27" x="346.2" y="121.93" width="47.41" height="126.81"/></g></g></g></g></g></g><path class="cls-28" d="M74,33.76C53.39,46.49,33.43,59.93,20.69,82.13A127.19,127.19,0,0,0,3.61,137.75C16.3,143.48,29,149.16,41.67,155c4.4,2,6.25-1.46,8.24-4.08,5.25-6.93,11.83-11.92,20-13.61a41,41,0,0,1,22.51,1.62c14.56,5.26,29.38,9.08,44.91,10.28a295.64,295.64,0,0,0,34.56.73c24.57-1,48.57-5.76,70.91-16.84,16.77-8.32,31-20.15,39.53-38.1s4.05-37-11.63-48.8c-4.59-3.45-9.37-6.63-14.06-9.94-11.35-7.48-24.25-9.16-37.13-10.67-17-2-34-.75-50.89,2.06-23,3.83-43.6,13.26-61.35,29.11a48.37,48.37,0,0,0-13,18.84c-2.3,6-1.7,7.77,3.29,11.82,17.1,18.32,39.13,22.51,62.16,23.45,13.64.56,27.35.57,40.61-3.42,7.81-2.35,15-5.68,21.41-11.7,12.43-11.74,2.45-28.78-8.2-31.67-1-.27-2.15-.1-2.91-1.09-6.8-3.55-18.38-1.54-23.16,4a8.4,8.4,0,0,0-1.86,8.27c.41,1.43.94,2.8,1.44,4.2,3.44,9.69-.57,16.46-10.46,17.52-9.45,1-18.39-1.14-26.92-5.24a138.53,138.53,0,0,1-13.59-7.62,44,44,0,0,1-6.81-11.85c-2.6-6.42.9-11.35,4.6-15.53,7.54-8.53,17.55-12.59,28.27-13.94,25.89-3.24,50.37,2.36,73.45,14.69A41.7,41.7,0,0,1,255.22,80c4,10.29-1.19,20.25-8.07,26.24-15.49,13.49-34.14,19-53.54,22.64a157.21,157.21,0,0,1-41.89,2c-27.83-2.26-54.54-9-77.44-27.11C61.18,93.37,58.27,79.13,60.52,63c1.38-9.92,6.26-18,11.79-25.84.76-1.06,1.64-2,1.65-3.39"/><g class="cls-29"><rect class="cls-6" x="-92.39" y="-812.42" width="1440" height="1832"/><g class="cls-30"><rect class="cls-6" x="-1.39" y="19.58" width="293" height="141"/></g></g><path class="cls-31" d="M329.94,200.58l1.37-1.63a9.19,9.19,0,0,0,1.14-6.47c-1.43-11.43-1.19-23.24-5.05-34.16-2.83-8-2.21-13.95,4.32-19.62,3.61-3.12,6.36-7.49,9-11.71,6.69-10.58,11.17-21.64,7.59-34.67-2.61-21-14.17-35.86-30.1-47.74,6.42,8.2,11.38,17.29,13.77,27.55,4.65,20,1.31,37.35-14.19,51.91-20.86,19.57-45,32.31-71.48,40.36-11.5,3.5-23.51,4.95-35.48,6.39-26.21,3.16-52.49,1.73-78.74,2.11-4.16.06-8.24-1.83-12.51-.11,24.24,11,49.69,15.69,76,15.9,7.84.85,15.64,2.42,23.58,1.38,12.17-2.19,24.55-3.08,36.59-6.3a91,91,0,0,0,12.15-3.91c3.18-1.36,4.81-.75,5.42,3.2.7,4.51.69,9.3,3.37,13.28l1.07,1.14c5,1.8,10,3.66,15,5.39,12.67,4.38,25,3.32,37.15-2.29"/><g class="cls-32"><rect class="cls-8" x="-92.39" y="-812.42" width="1440" height="1832"/><g class="cls-33"><rect class="cls-8" x="114.61" y="39.58" width="240" height="171"/></g></g><g class="cls-34"><g class="cls-15"><rect class="cls-6" x="-1.39" y="138.58" width="82" height="142"/></g></g><g class="cls-35"><g class="cls-15"><rect class="cls-36" x="80.61" y="9.58" width="181" height="83"/></g></g><path class="cls-37" d="M348.49,91.58c2.26,21-8.54,35.86-21.48,49.57-3.27,3.46-4.25,6.12-2.65,11A108.77,108.77,0,0,1,330.11,186a10.78,10.78,0,0,0,1.05,5.41c5,.77,8.84-2.14,12.92-4.34,1.89-1,3.17-3.07,5.42-3.46,5.89-5.62,9.71-13,15-19.11,0-.36,0-.73,0-1.1a146.06,146.06,0,0,0-6.63-48.11c-.62-1.93-1.64-3.71-2.42-5.59-2.47-6-6.4-11.39-7-18.16"/><g class="cls-38"><rect class="cls-10" x="-92.39" y="-812.42" width="1440" height="1832"/><g class="cls-39"><rect class="cls-10" x="318.61" y="86.58" width="51" height="110"/></g></g><path class="cls-11" d="M220.35,187.65l-24.41.08c1.86,2.05,4.49.22,7.16,1.8-6.24,4.29-12.26,8.3-18.15,12.51-9.76,7-18.93,14.7-29.9,19.85-22,10.33-42.94,4.7-56-16.27-6.49-10.44-12.77-21.08-21.33-29.84-8-8.16-17.78-13.28-27.57-18.41-3.27-1.71-5.37-.6-6.71,2.76-.95,2.4-2.6,4.48-2.87,7.19,9.19,5.11,19.07,8.77,27.36,15.82,11.26,9.58,18.94,22.08,26.68,34.59,4.66,7.52,10.41,13.69,18.29,17.29,15.66,7.15,30.07,2.64,43.95-5.66,13.54-8.1,25.2-19.34,39.23-26.62,8.08-4.18,16.16-8.46,25.26-9.71a5.16,5.16,0,0,1,.1-.88c.26-1.68.22-3.27-1.13-4.5"/><g class="cls-40"><rect class="cls-2" x="-92.39" y="-812.42" width="1440" height="1832"/><g class="cls-13"><rect class="cls-2" x="35.61" y="151.58" width="191" height="92"/></g></g><g class="cls-41"><g class="cls-15"><rect class="cls-36" x="131.61" y="48.58" width="86" height="55"/></g></g><path class="cls-37" d="M220.61,187.73c.19,1.57-.44,3.37,1.12,4.54,5-.79,10-1.5,15-2.39,13.85-2.49,26.93,1.26,39.93,5.7-.73-5.77-1.38-11.54-2.21-17.29-.62-4.37-3.84-2.31-5.32-1.62-7.62,3.62-15.68,5.27-23.76,6.82-6.68,1.27-13.44,2.14-20.18,3a11.09,11.09,0,0,0-4.53,1.23"/><g class="cls-42"><rect class="cls-10" x="-92.39" y="-812.42" width="1440" height="1832"/><g class="cls-39"><rect class="cls-10" x="215.61" y="170.58" width="66" height="30"/></g></g><path class="cls-37" d="M349.61,183.43c-.83-1.3-1.71-.92-2.61-.11-4.52,4.05-10,5.92-15.39,8.07q.06,3.59.14,7.19c7.1-3.46,12.55-9.21,17.86-15.15"/><g class="cls-43"><rect class="cls-10" x="-92.39" y="-812.42" width="1440" height="1832"/><g class="cls-39"><rect class="cls-10" x="326.61" y="177.58" width="28" height="26"/></g></g></svg>