<svg xmlns="http://www.w3.org/2000/svg" xmlns:xlink="http://www.w3.org/1999/xlink" viewBox="0 0 396 304"><defs><style>.cls-1,.cls-2{fill:none;}.cls-1{clip-rule:evenodd;}.cls-3{clip-path:url(#clip-path);}.cls-4{clip-path:url(#clip-path-2);}.cls-5{fill:#a55d74;}.cls-6{clip-path:url(#clip-path-3);}.cls-7{isolation:isolate;}.cls-8{clip-path:url(#clip-path-5);}.cls-9{clip-path:url(#clip-path-6);}.cls-10{clip-path:url(#clip-path-7);}.cls-11{fill:#591347;}.cls-12{clip-path:url(#clip-path-8);}.cls-13{fill:#83296e;}.cls-14{clip-path:url(#clip-path-10);}.cls-15{fill:#b33e97;}.cls-16{clip-path:url(#clip-path-12);}.cls-17{clip-path:url(#clip-path-14);}.cls-18{clip-path:url(#clip-path-16);}.cls-19{clip-path:url(#clip-path-17);}.cls-20{clip-path:url(#clip-path-18);}.cls-21{fill:#480738;}.cls-22{clip-path:url(#clip-path-19);}.cls-23{fill:#c3a2ad;}.cls-24{clip-path:url(#clip-path-21);}.cls-25{fill:#fbe2e9;}.cls-26{clip-path:url(#clip-path-23);}.cls-27{fill:#321029;}.cls-28{clip-path:url(#clip-path-25);}.cls-29{clip-path:url(#clip-path-27);}.cls-30{clip-path:url(#clip-path-29);}.cls-31{clip-path:url(#clip-path-31);}.cls-32{clip-path:url(#clip-path-33);}.cls-33{clip-path:url(#clip-path-35);}</style><clipPath id="clip-path" transform="translate(-960 -810)"><path class="cls-1" d="M968.1,938.77l-.09-2.36c-.23-8.94,3.12-17,7.15-24.3,10.6-19.27,22.41-37.68,39.11-52,15.24-13,32.72-21.56,51.08-28.32,23.43-8.62,47.72-13.1,72.32-15.63,24.11-2.48,48.11-.89,72.12,2.5a183.56,183.56,0,0,1,64.5,21.86c2.18,1.22,4.56,2.15,6.07,4.4,3.25,5.56,7.32,10.57,9.91,16.58,7.75,18,7.48,42.74-12.74,57.39-16.65,12-35.09,18.83-54.6,22.59-32.24,6.21-64,4.41-94.84-8.21a76.81,76.81,0,0,1-21.22-12.72c-13.75-11.83-14.75-27.64-2.83-41.5,6-7,13.33-11.61,21.39-15.34,15.66-7.24,32.23-10.65,49.13-11.7,14-.87,27.66,1.52,39.75,9.93l.45.31c13.71,9.84,14.89,21.75,3.42,34.52a53.55,53.55,0,0,1-33.32,3.71,18,18,0,0,1-5.49-2.09c-3.72-2.15-4.37-5.12-1.78-8.77,2.13-3,5-5.33,7.34-8.1,3.26-3.82,3.16-6-.27-9.53a13.4,13.4,0,0,0-7.49-4c-10.51-1.67-20.9-1.61-30.66,3.68-1.47.8-3.56,1.17-3.42,3.71-1.17,1.94-3.3,2.05-5,2.94-11.53,6-13.64,18.85-4.79,28.45,6.37,6.91,14.56,10.07,23.09,11.74,24.55,4.82,49,4.69,73-3.63,8.17-2.84,15.76-6.71,21.89-13.27a12.21,12.21,0,0,1,3.86-2.93c12.15-8,14.9-22.08,6.65-34.28-9.52-14.1-23.46-21.5-38.35-26.92a151.53,151.53,0,0,0-68.12-8.73c-19,2-37,6.65-53.53,16.93a12.2,12.2,0,0,0-3.79,3c-4.45,4.37-10,7-14.79,11-18.71,15.44-17.63,35.34-7.52,52.23,9.49,15.87,23.4,26.4,39.59,33.57,31.65,14,64.77,16.9,98.7,14.4,16.85-1.24,32.74-6,48.79-10.9,16.81-5.12,29.53-1.63,41.3,12.46,3.23,3.87,6.09,4.84,10.58,2.75,9.74-4.52,19.63-8.69,29.41-13.11,1.77-.81,3.48-1.94,5.57-1.59a3.31,3.31,0,0,1,1.32,2.25,7.19,7.19,0,0,1-.34,3.5c-3.63,6.85-9.19,11.69-15.53,15.39-6.57,3.83-13.07,8-20.4,10.19a3,3,0,0,1-1.49-.58c-6.32-9.85-6.26-9.72-16.53-4.62-14.65,7.27-25.26,19-34.05,33-5.18,8.23-9.87,16.89-17.52,23.11-14.2,11.55-29.49,11.3-45.37,4.81-9.54-3.91-17.84-10-26-16.39-6.15-4.79-12.56-9.15-19.06-13.36-1.78-1.15-4.48-2.21-4.2-4.6.35-2.9,3.39-1.82,5.31-2.3.86-.22,1.72-.47,2.59-.67a227,227,0,0,0,57.76-9.07,71.39,71.39,0,0,0,13-4.9c-3.38.94-6.81.88-10.24.88-16.52,0-33.05.57-49.54-.13-27.53-1.15-54.86-4-80.87-14.86-21.35-8.93-40.93-20.86-57.35-37.82-10.31-10.65-14.21-24.17-12.82-39.4a66.66,66.66,0,0,1,11.5-32.12A69.87,69.87,0,0,0,1006.3,904c-.36,5.32-2.56,9.88-4.88,14.53-7.48,15-9.81,31.32-10.65,48-.14,2.77.3,5.59-.69,8.28-1.61,2.24-2.89.58-3.79-.62a132.46,132.46,0,0,1-17.73-31.63c-.47-1.24.28-2.62-.46-3.81"/></clipPath><clipPath id="clip-path-2" transform="translate(-960 -810)"><rect class="cls-2" width="1440" height="1832"/></clipPath><clipPath id="clip-path-3" transform="translate(-960 -810)"><rect class="cls-2" x="1126.32" y="979.98" width="190.92" height="129.02"/></clipPath><clipPath id="clip-path-5" transform="translate(-960 -810)"><rect class="cls-2" x="1125" y="979" width="195" height="131"/></clipPath><clipPath id="clip-path-6" transform="translate(-960 -810)"><path class="cls-1" d="M1312.6,980.28l1.06.07c2.9,5.37,3,11.5,3.32,17.29,2.07,35.74-8.55,65.84-36.26,88a29.29,29.29,0,0,0-3.2,2.9c-6.14,5.45-14.06,5.82-21.27,8.23a314.18,314.18,0,0,1-95.54,12.17c-9.12-.22-18.31-.16-27.36-1.91-4.36-5.68-4.87-12.71-5.64-19.46-1.34-11.85-1.07-23.82-1.36-35.75-.36-15.28,2-30.1,5.23-44.84,2.86-3.78,6.22-1.49,9.14-.45a126.14,126.14,0,0,1,30.33,15.81c9,6.3,17.44,13.43,26.9,18.93,8.27,4.8,16.84,8.24,26.59,8.4,13.92.22,24-6.59,31.72-17.94,5.37-7.87,10.17-16.14,15.88-23.79,10-13.38,23.24-21.52,37.91-27.6a2.83,2.83,0,0,1,2.55,0"/></clipPath><clipPath id="clip-path-7" transform="translate(-960 -810)"><rect class="cls-2" x="1126" y="979" width="192" height="131"/></clipPath><clipPath id="clip-path-8" transform="translate(-960 -810)"><path class="cls-1" d="M1132,1005.57c.88,4.74-.83,9.15-1.69,13.62-3.8,19.89-2.75,39.87-1.88,59.94.41,9.61,2.46,18.69,4.56,27.87a235.77,235.77,0,0,1-53-9.18c-2.72-4.43-2.55-9.65-3.19-14.55-2.21-17-4.18-34-3.82-51.29.16-7.49,1-14.88,1.62-22.3a4.71,4.71,0,0,1,1.61-2.48c18-8.37,36.4-9.4,55.18-3.31a1.39,1.39,0,0,1,.56,1.68"/></clipPath><clipPath id="clip-path-10" transform="translate(-960 -810)"><path class="cls-1" d="M1075.72,1009.77c0,10.73-1.48,21.39-1.1,32.16a414.4,414.4,0,0,0,5,48.88,71.52,71.52,0,0,1,.42,7.19c-15.9-3.92-31.24-9.42-45.58-17.77-4.3-5.2-4.72-12-6.23-18.17-3.44-14-6-28.3-6.17-42.91,0-2.27-.23-4.48,1.47-6.24,1.88-1.24,3.73-.59,5.54.15,11.91,4.85,23.6,3.65,35.36-.89,3.56-1.37,7-4.66,11.33-2.4"/></clipPath><clipPath id="clip-path-12" transform="translate(-960 -810)"><path class="cls-1" d="M1024.45,1012.65c-1,9.06.11,18,1.39,26.94,2,13.74,5.58,27.07,9.16,40.41a122.33,122.33,0,0,1-34.39-24.47c-.81-8-3.6-15.47-5.09-23.29a412.35,412.35,0,0,1-6.43-49.65,12.87,12.87,0,0,1,.21-4.42c2.36-2.82,3.34.19,4.28,1.4,4,5.2,7.74,10.66,12,15.7,5.34,5.61,11,10.77,17.66,14.68a2.93,2.93,0,0,1,1.25,2.7"/></clipPath><clipPath id="clip-path-14" transform="translate(-960 -810)"><rect class="cls-2" x="965" y="939.36" width="37.41" height="116.81"/></clipPath><clipPath id="clip-path-16" transform="translate(-960 -810)"><rect class="cls-2" x="963" y="939" width="40" height="118"/></clipPath><clipPath id="clip-path-17" transform="translate(-960 -810)"><path class="cls-1" d="M989.89,977.44c1.53,21.13,3.9,42.14,8.7,62.79,1,4.33,2.14,8.64,3.49,12.87.6,1.88.52,2.84-1.51,3.07-19.31-17-28.9-39.54-33.33-64.71-3-17.37-3.26-34.83,1.11-52.1,5.76,13.2,12.2,26,21.52,37a.68.68,0,0,1,.27.73c-.08.24-.16.37-.25.37"/></clipPath><clipPath id="clip-path-18" transform="translate(-960 -810)"><rect class="cls-2" x="965" y="939" width="38" height="118"/></clipPath><clipPath id="clip-path-19" transform="translate(-960 -810)"><path class="cls-1" d="M1279.65,846.18c20.56,12.73,40.52,26.17,53.27,48.38A127.24,127.24,0,0,1,1350,950.17c-12.69,5.74-25.41,11.42-38.06,17.23-4.4,2-6.26-1.47-8.24-4.09-5.25-6.93-11.84-11.92-20-13.61a41,41,0,0,0-22.51,1.63c-14.55,5.25-29.37,9.07-44.91,10.27a293.35,293.35,0,0,1-34.55.74c-24.58-1-48.57-5.76-70.92-16.85-16.77-8.32-31-20.15-39.52-38.1s-4-37,11.63-48.8c4.59-3.45,9.37-6.63,14.06-9.94,11.34-7.48,24.25-9.15,37.13-10.67,17-2,34-.74,50.89,2.07a119.5,119.5,0,0,1,61.34,29.1,48.36,48.36,0,0,1,13,18.84c2.3,6,1.69,7.77-3.29,11.82-17.11,18.33-39.14,22.52-62.17,23.46-13.63.55-27.34.57-40.61-3.43-7.8-2.35-15-5.68-21.41-11.7-12.43-11.74-2.45-28.77,8.2-31.66,1-.28,2.16-.1,2.92-1.09,6.79-3.55,18.37-1.55,23.16,4a8.41,8.41,0,0,1,1.86,8.27c-.41,1.43-.94,2.81-1.44,4.2-3.45,9.69.57,16.46,10.45,17.52,9.46,1,18.39-1.13,26.92-5.24a139.51,139.51,0,0,0,13.6-7.61,44,44,0,0,0,6.8-11.85c2.61-6.43-.9-11.36-4.59-15.54-7.54-8.53-17.56-12.59-28.28-13.93-25.89-3.25-50.37,2.35-73.44,14.68a41.67,41.67,0,0,0-19.64,22.54c-4,10.28,1.19,20.24,8.07,26.23,15.49,13.49,34.14,19,53.54,22.64a156.87,156.87,0,0,0,41.9,2c27.83-2.26,54.54-9,77.43-27.1,13.11-10.36,16-24.6,13.77-40.74-1.38-9.92-6.26-18-11.8-25.84-.75-1.06-1.63-2-1.64-3.39"/></clipPath><clipPath id="clip-path-21" transform="translate(-960 -810)"><path class="cls-1" d="M1023.66,1013l-1.36-1.62a9.14,9.14,0,0,1-1.14-6.47c1.42-11.44,1.18-23.24,5.05-34.17,2.82-8,2.2-13.94-4.33-19.61-3.6-3.13-6.35-7.5-9-11.72-6.7-10.58-11.17-21.64-7.6-34.66,2.62-21,14.17-35.87,30.1-47.75-6.42,8.2-11.38,17.3-13.76,27.55-4.66,20-1.32,37.36,14.19,51.91,20.85,19.57,45,32.31,71.48,40.37,11.49,3.49,23.51,4.94,35.48,6.39,26.21,3.15,52.48,1.72,78.73,2.1,4.17.06,8.24-1.83,12.52-.11-24.24,11-49.69,15.7-76,15.91-7.84.85-15.65,2.41-23.58,1.37-12.18-2.19-24.56-3.08-36.59-6.3a88.65,88.65,0,0,1-12.15-3.91c-3.18-1.35-4.82-.74-5.43,3.2-.69,4.51-.69,9.3-3.36,13.28l-1.07,1.15c-5,1.8-10,3.65-15,5.39-12.66,4.37-25,3.32-37.15-2.3"/></clipPath><clipPath id="clip-path-23" transform="translate(-960 -810)"><path class="cls-1" d="M1349.85,956a299,299,0,0,1-3.39,53.92c-3.89,26.54-19.06,45.44-38.58,60.92-9.11,7.23-18.79,13.64-29.88,17.16,5.07-4.81,10.36-9.37,15.17-14.46,13-13.76,19.44-31.08,22.9-49.75,2.31-12.52,1.52-25.09-.76-37.58a39.45,39.45,0,0,1-.27-5.56c6.22-3.33,12.5-6.56,18.66-10,6.39-3.59,11.29-9.1,16.15-14.63"/></clipPath><clipPath id="clip-path-25" transform="translate(-960 -810)"><path class="cls-1" d="M1256,900c5-4.38,3.25-9.26.85-14.09-5.69-11.48-14.77-19.44-25-26.1-20.52-13.39-43.1-19.11-67-20.67-18.38-1.2-36.39,0-54.18,4.79-4.62,1.25-9.09,3.11-13.62,4.69,6-6.39,13.86-9.52,21.6-12.46,24.26-9.2,49.17-11.17,74.71-7.25,21,3.23,40.86,9.36,58.08,22.71,9.78,7.59,17.73,16.79,16.48,31.2-.58,6.7-6.23,15.21-11.89,17.18"/></clipPath><clipPath id="clip-path-27" transform="translate(-960 -810)"><path class="cls-1" d="M1005.11,904c-2.26,21,8.54,35.86,21.49,49.57,3.27,3.46,4.25,6.12,2.64,11a109.05,109.05,0,0,0-5.74,33.88,10.66,10.66,0,0,1-1.06,5.41c-5,.77-8.83-2.14-12.91-4.34-1.9-1-3.18-3.07-5.43-3.46-5.89-5.62-9.7-13-15-19.1,0-.37,0-.74,0-1.1a145.82,145.82,0,0,1,6.64-48.12c.62-1.93,1.64-3.71,2.41-5.59,2.47-6,6.4-11.38,7-18.16"/></clipPath><clipPath id="clip-path-29" transform="translate(-960 -810)"><path class="cls-1" d="M1133.26,1000.07l24.4.08c-1.86,2.05-4.48.22-7.16,1.8,6.25,4.3,12.27,8.3,18.16,12.51,9.75,7,18.92,14.7,29.9,19.86,22,10.33,42.94,4.7,56-16.28,6.48-10.44,12.76-21.08,21.32-29.84,8-8.15,17.78-13.27,27.58-18.4,3.27-1.72,5.36-.6,6.7,2.76,1,2.39,2.61,4.48,2.88,7.18-9.2,5.12-19.07,8.78-27.36,15.83-11.27,9.58-19,22.07-26.69,34.58-4.65,7.52-10.41,13.69-18.29,17.29-15.66,7.15-30.06,2.64-43.94-5.66-13.55-8.1-25.2-19.34-39.24-26.61-8.07-4.19-16.16-8.47-25.26-9.71a6.54,6.54,0,0,0-.09-.89c-.27-1.68-.22-3.27,1.13-4.5"/></clipPath><clipPath id="clip-path-31" transform="translate(-960 -810)"><path class="cls-1" d="M1217,896.41c-12,11.15-26.15,16-42,14.22-10.18-1.16-14.22-9.16-10.55-18.8s0-15.9-10.19-16.62c-3.87-.27-7.78,0-11.68.1-3.41-1.4-.43-2.46.34-3a32.19,32.19,0,0,1,14.81-5.61c7.36-.79,14.75-1.44,22,1,3.23,1.1,5.5,3.26,7.61,5.77s2.18,5.32-.25,7.86c-2.63,2.75-5.3,5.47-7.87,8.28-4,4.33-3.69,6.34,1.51,8.32,10.34,3.93,20.75,3,31.12,0,1.7-.5,3.39-1,5.08-1.55"/></clipPath><clipPath id="clip-path-33" transform="translate(-960 -810)"><path class="cls-1" d="M1133,1000.15c-.19,1.57.44,3.37-1.12,4.55-5-.8-10-1.51-15-2.4-13.86-2.49-26.93,1.27-39.93,5.7.73-5.76,1.38-11.54,2.2-17.29.63-4.37,3.84-2.31,5.32-1.61,7.62,3.61,15.69,5.26,23.77,6.81,6.68,1.28,13.44,2.14,20.18,3a11.17,11.17,0,0,1,4.53,1.23"/></clipPath><clipPath id="clip-path-35" transform="translate(-960 -810)"><path class="cls-1" d="M1004,995.85c.82-1.3,1.71-.92,2.61-.11,4.52,4.06,10,5.92,15.39,8.07,0,2.4-.09,4.79-.14,7.19-7.11-3.46-12.55-9.21-17.86-15.15"/></clipPath></defs><title>blackberry</title><g id="Layer_2" data-name="Layer 2"><g id="Layer_1-2" data-name="Layer 1"><g class="cls-3"><g class="cls-4"><rect class="cls-5" x="3" width="393" height="236"/></g></g><g class="cls-6"><g class="cls-4"><g class="cls-7"><g class="cls-8"><g class="cls-9"><g class="cls-10"><rect class="cls-11" x="161.32" y="164.98" width="200.92" height="139.02"/></g></g></g></g></g></g><g class="cls-12"><g class="cls-4"><rect class="cls-13" x="108" y="185" width="70" height="117"/></g></g><g class="cls-14"><g class="cls-4"><rect class="cls-15" x="57" y="194" width="68" height="99"/></g></g><g class="cls-16"><g class="cls-4"><rect class="cls-11" x="24" y="162" width="56" height="113"/></g></g><g class="cls-17"><g class="cls-4"><g class="cls-7"><g class="cls-18"><g class="cls-19"><g class="cls-20"><rect class="cls-21" y="124.36" width="47.41" height="126.81"/></g></g></g></g></g></g><g class="cls-22"><g class="cls-4"><rect class="cls-23" x="102" y="22" width="293" height="141"/></g></g><g class="cls-24"><g class="cls-4"><rect class="cls-25" x="39" y="42" width="240" height="171"/></g></g><g class="cls-26"><g class="cls-4"><rect class="cls-27" x="313" y="141" width="82" height="142"/></g></g><g class="cls-28"><g class="cls-4"><rect class="cls-25" x="132" y="12" width="181" height="83"/></g></g><g class="cls-29"><g class="cls-4"><rect class="cls-23" x="24" y="89" width="51" height="110"/></g></g><g class="cls-30"><g class="cls-4"><rect class="cls-23" x="167" y="154" width="191" height="92"/></g></g><g class="cls-31"><g class="cls-4"><rect class="cls-25" x="176" y="51" width="86" height="55"/></g></g><g class="cls-32"><g class="cls-4"><rect class="cls-25" x="112" y="173" width="66" height="30"/></g></g><g class="cls-33"><g class="cls-4"><rect class="cls-25" x="39" y="180" width="28" height="26"/></g></g></g></g></svg>